<?xml version="1.0" encoding="UTF-8" standalone="no"?>
<!-- Created with Inkscape (http://www.inkscape.org/) -->

<svg
   xmlns:dc="http://purl.org/dc/elements/1.1/"
   xmlns:cc="http://creativecommons.org/ns#"
   xmlns:rdf="http://www.w3.org/1999/02/22-rdf-syntax-ns#"
   xmlns:svg="http://www.w3.org/2000/svg"
   xmlns="http://www.w3.org/2000/svg"
   xmlns:sodipodi="http://sodipodi.sourceforge.net/DTD/sodipodi-0.dtd"
   xmlns:inkscape="http://www.inkscape.org/namespaces/inkscape"
   width="744.09448819"
   height="1052.3622047"
   id="svg2"
   version="1.1"
   inkscape:version="0.48.5 r10040"
   sodipodi:docname="logo.svg">
  <defs
     id="defs4" />
  <sodipodi:namedview
     id="base"
     pagecolor="#ffffff"
     bordercolor="#666666"
     borderopacity="1.0"
     inkscape:pageopacity="0.0"
     inkscape:pageshadow="2"
     inkscape:zoom="0.5"
     inkscape:cx="429.18476"
     inkscape:cy="522.65747"
     inkscape:document-units="px"
     inkscape:current-layer="g3984"
     showgrid="false"
     showguides="true"
     inkscape:guide-bbox="true"
     inkscape:snap-global="false"
     inkscape:window-width="1356"
     inkscape:window-height="825"
     inkscape:window-x="0"
     inkscape:window-y="0"
     inkscape:window-maximized="0" />
  <metadata
     id="metadata7">
    <rdf:RDF>
      <cc:Work
         rdf:about="">
        <dc:format>image/svg+xml</dc:format>
        <dc:type
           rdf:resource="http://purl.org/dc/dcmitype/StillImage" />
        <dc:title></dc:title>
      </cc:Work>
    </rdf:RDF>
  </metadata>
  <g
     inkscape:label="Layer 1"
     inkscape:groupmode="layer"
     id="layer1">
    <g
       id="g3879"
       transform="translate(-2.5002356e-6,44.587803)">
      <g
         transform="matrix(4.7303628,0,0,4.7303628,-645.51588,-601.80139)"
         id="text2985"
         style="font-size:40px;font-style:normal;font-variant:normal;font-weight:bold;font-stretch:normal;line-height:125%;letter-spacing:0px;word-spacing:0px;fill:#000000;fill-opacity:1;stroke:none;font-family:Computerfont;-inkscape-font-specification:Computerfont Bold">
        <path
           id="path3016"
           d="m 185.78125,157.36218 -12,12 12,12 -8,0 -10.68,-10.68 -0.04,-2.68 10.72,-10.64 8,0 m -22.82125,24 -5.32,0 -1.36,-1.36 0,-2.64 1.36,-1.36 5.32,0 1.36,1.36 0,2.64 -1.36,1.36 m 0,-8 -5.32,0 -1.36,-1.36 0,-13.28 1.36,-1.36 2.68,0 1.36,1.36 0,5.36 2.64,2.64 0,5.28 -1.36,1.36"
           style="fill:#000000;fill-opacity:1" />
        <g
           id="g3996"
           style="fill:#666666;fill-opacity:1">
          <path
             d="m 190.98062,181.36218 -1.36,-1.36 0,-15.96 1.36,-1.36 13.24,0 1.36,1.36 0,15.96 -1.36,1.36 -13.24,0 m 11.96,-16 -7.96,0 0,4.04 2.6,2.6 0,6.68 5.36,0 0,-13.32"
             id="path3018"
             inkscape:connector-curvature="0"
             style="fill:#666666;fill-opacity:1" />
          <path
             d="m 208.21625,180.00218 1.36,1.36 13.28,0 1.36,-1.36 0,-21.32 -1.32,-1.32 -2.64,0 -1.36,1.36 0,3.96 -9.32,0 -1.36,1.36 0,15.96 m 2.68,-14.64 8,0 0,4 -2.68,2.68 0,6.64 -5.32,0 0,-13.32"
             id="path3020"
             inkscape:connector-curvature="0"
             style="fill:#666666;fill-opacity:1" />
          <path
             d="m 230.83687,162.68218 0,6.68 2.68,2.68 0,7.96 -1.35999,1.36 -2.60001,0 -1.36,-1.36 0,-17.32 2.64,0 m 0,-2.12 -2.64,0 -0.48,-0.48 0,-1.84 0.48,-0.48 2.64,0 0.48,0.48 0,1.84 -0.48,0.48"
             id="path3022"
             inkscape:connector-curvature="0"
             style="fill:#666666;fill-opacity:1" />
          <path
             d="m 249.23062,165.36218 -8,0 0,4.04 2.64,2.64 0,7.96 -1.36,1.36 -5.24,0 -1.36,-1.36 0,-15.96 1.36,-1.36 13.24,0 1.36,1.36 0.04,17.32 -2.68,0 0,-16"
             id="path3024"
             inkscape:connector-curvature="0"
             style="fill:#666666;fill-opacity:1" />
          <path
             d="m 273.94625,172.25218 0,7.71 -1.4,1.4 -15.92,0 -1.4,-1.4 0,-15.95 1.4,-1.4 15.92,0 1.4,1.4 0,3.92 -2.68,0 0,-2.68 -10.47,0 0,5.2 2.6,1.8 0,6.43 7.87,0 0,-6.43 -5.6,0 0,-1.8 6,0 2.28,1.8"
             id="path3026"
             inkscape:connector-curvature="0"
             sodipodi:nodetypes="cccccccccccccccccccccc"
             style="fill:#666666;fill-opacity:1" />
        </g>
      </g>
      <g
         id="g3984">
        <path
           id="path3948"
           transform="translate(2.5002356e-6,-44.587803)"
           d="M 117.34375 332.5 L 93.53125 356.65625 L 93.53125 831.96875 L 126.28125 865.1875 L 616.8125 865.1875 L 650.5625 830.96875 L 650.5625 356.65625 L 626.75 332.5 L 117.34375 332.5 z M 131.25 347.59375 L 612.84375 347.59375 L 635.6875 370.75 L 635.6875 815.875 L 601.90625 850.09375 L 141.1875 850.09375 L 108.40625 816.875 L 108.40625 370.75 L 131.25 347.59375 z "
           style="font-size:603.75982666000004428px;font-style:normal;font-variant:normal;font-weight:bold;font-stretch:normal;line-height:125%;letter-spacing:0px;word-spacing:0px;fill:#666666;fill-opacity:1;stroke:none;font-family:Computerfont;-inkscape-font-specification:Computerfont Bold" />
        <path
           id="path3944"
           transform="translate(2.5002356e-6,-44.587803)"
           d="M 189.84375 409 L 162.03125 437.1875 L 162.03125 674.6875 L 189.84375 702.875 L 557.25 702.875 L 585.03125 674.6875 L 585.03125 437.1875 L 557.25 409 L 189.84375 409 z M 180.3125 433.59375 L 343.46875 433.59375 L 343.46875 460.5 L 289.625 460.5 L 289.625 501.71875 L 316.53125 528.625 L 316.53125 664.4375 L 302.6875 678.3125 L 249.25 678.3125 L 235.375 664.4375 L 235.375 460.5 L 180.3125 460.5 L 180.3125 433.59375 z M 387.59375 433.59375 L 441 433.59375 L 454.875 447.46875 L 454.875 651 L 509.9375 651 L 509.9375 582.875 L 537.28125 555.53125 L 537.28125 433.59375 L 563.78125 433.59375 L 563.78125 582.875 L 536.875 609.78125 L 536.875 664.4375 L 523 678.3125 L 414.90625 678.3125 L 401.03125 664.4375 L 401.03125 610.1875 L 373.71875 582.875 L 373.71875 447.46875 L 387.59375 433.59375 z "
           style="font-size:603.75982666px;font-style:normal;font-variant:normal;font-weight:bold;font-stretch:normal;line-height:125%;letter-spacing:0px;word-spacing:0px;fill:#000000;fill-opacity:1;stroke:none;font-family:Computerfont;-inkscape-font-specification:Computerfont Bold" />
        <path
           id="path3029"
           d="m 389.42425,717.76011 118.16367,0 0,-10.06411 60.5713,0 0,35.22442 -60.5713,0 0,-10.06412 -118.16367,0 0,-15.09619"
           style="font-size:603.75982666000004428px;font-style:normal;font-variant:normal;font-weight:bold;font-stretch:normal;line-height:125%;letter-spacing:0px;word-spacing:0px;fill:#666666;fill-opacity:1;stroke:none;font-family:Computerfont;-inkscape-font-specification:Computerfont Bold" />
        <path
           style="font-size:603.75982666000004428px;font-style:normal;font-variant:normal;font-weight:bold;font-stretch:normal;line-height:125%;letter-spacing:0px;word-spacing:0px;fill:#666666;fill-opacity:1;stroke:none;font-family:Computerfont;-inkscape-font-specification:Computerfont Bold"
           d="M 189.84375 409 L 162.03125 437.1875 L 162.03125 674.6875 L 189.84375 702.875 L 557.25 702.875 L 585.03125 674.6875 L 585.03125 437.1875 L 557.25 409 L 189.84375 409 z M 180.3125 433.59375 L 343.46875 433.59375 L 343.46875 460.5 L 289.625 460.5 L 289.625 501.71875 L 316.53125 528.625 L 316.53125 664.4375 L 302.6875 678.3125 L 249.25 678.3125 L 235.375 664.4375 L 235.375 460.5 L 180.3125 460.5 L 180.3125 433.59375 z M 387.59375 433.59375 L 441 433.59375 L 454.875 447.46875 L 454.875 651 L 509.9375 651 L 509.9375 582.875 L 537.28125 555.53125 L 537.28125 433.59375 L 563.78125 433.59375 L 563.78125 582.875 L 536.875 609.78125 L 536.875 664.4375 L 523 678.3125 L 414.90625 678.3125 L 401.03125 664.4375 L 401.03125 610.1875 L 373.71875 582.875 L 373.71875 447.46875 L 387.59375 433.59375 z "
           transform="translate(2.5002356e-6,-44.587803)"
           id="path3994" />
      </g>
      <rect
         style="fill:none;stroke:none;fill-opacity:1"
         id="rect3956"
         width="592"
         height="600"
         x="70"
         y="306.36218"
         transform="translate(2.5002356e-6,-44.587803)" />
      <path
         id="path3959"
         d="M 117.34375 332.5 L 93.53125 356.65625 L 93.53125 831.96875 L 126.28125 865.1875 L 616.8125 865.1875 L 650.5625 830.96875 L 650.5625 356.65625 L 626.75 332.5 L 117.34375 332.5 z M 131.25 347.59375 L 612.84375 347.59375 L 635.6875 370.75 L 635.6875 815.875 L 601.90625 850.09375 L 141.1875 850.09375 L 108.40625 816.875 L 108.40625 370.75 L 131.25 347.59375 z "
         style="font-size:603.75982665999993060px;font-style:normal;font-variant:normal;font-weight:bold;font-stretch:normal;line-height:125%;letter-spacing:0px;word-spacing:0px;fill:none;fill-opacity:1;stroke:none;font-family:Computerfont;-inkscape-font-specification:Computerfont Bold"
         transform="translate(2.5002356e-6,-44.587803)" />
    </g>
  </g>
</svg>
